<mxfile host="app.diagrams.net" agent="Mozilla/5.0 (Windows NT 10.0; Win64; x64) AppleWebKit/537.36 (KHTML, like Gecko) Chrome/130.0.0.0 Safari/537.36 Edg/130.0.0.0" version="24.8.4">
  <diagram name="第 1 页" id="R5RWA77j1EfnbOuXcLx5">
    <mxGraphModel dx="1252" dy="663" grid="0" gridSize="10" guides="1" tooltips="1" connect="1" arrows="1" fold="1" page="0" pageScale="1" pageWidth="827" pageHeight="1169" math="0" shadow="0">
      <root>
        <mxCell id="0" />
        <mxCell id="1" parent="0" />
        <mxCell id="3i6LpW2TI8DiR0ECyHMc-58" value="" style="rounded=0;whiteSpace=wrap;html=1;fillColor=none;dashed=1;dashPattern=12 12;strokeColor=#000000;" vertex="1" parent="1">
          <mxGeometry x="977" y="273" width="206" height="262.95" as="geometry" />
        </mxCell>
        <mxCell id="3i6LpW2TI8DiR0ECyHMc-26" value="&lt;p style=&quot;margin-top: 0pt; margin-bottom: 0pt; margin-left: 0in; direction: ltr; unicode-bidi: embed; word-break: normal;&quot;&gt;&lt;font face=&quot;宋体&quot;&gt;&lt;span style=&quot;font-size: 24px;&quot;&gt;集成学习模块&lt;/span&gt;&lt;/font&gt;&lt;/p&gt;" style="rounded=0;whiteSpace=wrap;html=1;" vertex="1" parent="1">
          <mxGeometry x="1006" y="321" width="160" height="60" as="geometry" />
        </mxCell>
        <mxCell id="3i6LpW2TI8DiR0ECyHMc-22" value="" style="rounded=0;whiteSpace=wrap;html=1;fillColor=none;dashed=1;dashPattern=12 12;strokeColor=#000000;" vertex="1" parent="1">
          <mxGeometry x="771" y="273" width="206" height="262.95" as="geometry" />
        </mxCell>
        <mxCell id="3i6LpW2TI8DiR0ECyHMc-51" value="" style="rounded=0;whiteSpace=wrap;html=1;fillColor=none;strokeColor=#000000;fontColor=#000000;dashed=1;dashPattern=12 12;" vertex="1" parent="1">
          <mxGeometry x="191" y="276" width="247" height="262" as="geometry" />
        </mxCell>
        <mxCell id="3i6LpW2TI8DiR0ECyHMc-52" value="" style="rounded=0;whiteSpace=wrap;html=1;fillColor=none;strokeColor=#000000;fontColor=#000000;dashed=1;dashPattern=12 12;" vertex="1" parent="1">
          <mxGeometry x="438" y="277" width="209" height="262" as="geometry" />
        </mxCell>
        <mxCell id="3i6LpW2TI8DiR0ECyHMc-2" value="" style="rounded=0;whiteSpace=wrap;html=1;fillColor=none;strokeColor=#000000;fontColor=#000000;dashed=1;dashPattern=12 12;" vertex="1" parent="1">
          <mxGeometry x="520" y="94.38" width="550" height="150" as="geometry" />
        </mxCell>
        <mxCell id="3i6LpW2TI8DiR0ECyHMc-3" value="&lt;p style=&quot;margin-top: 0pt; margin-bottom: 0pt; margin-left: 0in; direction: ltr; unicode-bidi: embed; word-break: normal;&quot;&gt;&lt;span style=&quot;font-size: 18pt; font-family: 宋体;&quot;&gt;卫星遥感&lt;/span&gt;&lt;/p&gt;&lt;p style=&quot;margin-top: 0pt; margin-bottom: 0pt; margin-left: 0in; direction: ltr; unicode-bidi: embed; word-break: normal;&quot;&gt;&lt;span style=&quot;font-size: 18pt; font-family: 宋体;&quot;&gt;数据模块&lt;/span&gt;&lt;/p&gt;" style="rounded=0;whiteSpace=wrap;html=1;" vertex="1" parent="1">
          <mxGeometry x="535" y="104.38" width="160" height="60" as="geometry" />
        </mxCell>
        <mxCell id="3i6LpW2TI8DiR0ECyHMc-4" value="&lt;p style=&quot;margin-top: 0pt; margin-bottom: 0pt; margin-left: 0in; direction: ltr; unicode-bidi: embed; word-break: normal;&quot;&gt;&lt;font face=&quot;宋体&quot;&gt;&lt;span style=&quot;font-size: 24px;&quot;&gt;海洋浮标&lt;/span&gt;&lt;/font&gt;&lt;/p&gt;&lt;p style=&quot;margin-top: 0pt; margin-bottom: 0pt; margin-left: 0in; direction: ltr; unicode-bidi: embed; word-break: normal;&quot;&gt;&lt;font face=&quot;宋体&quot;&gt;&lt;span style=&quot;font-size: 24px;&quot;&gt;数据模块&lt;/span&gt;&lt;/font&gt;&lt;/p&gt;" style="rounded=0;whiteSpace=wrap;html=1;" vertex="1" parent="1">
          <mxGeometry x="715" y="104.38" width="160" height="60" as="geometry" />
        </mxCell>
        <mxCell id="3i6LpW2TI8DiR0ECyHMc-5" value="&lt;p style=&quot;margin-top: 0pt; margin-bottom: 0pt; margin-left: 0in; direction: ltr; unicode-bidi: embed; word-break: normal;&quot;&gt;&lt;font face=&quot;宋体&quot;&gt;&lt;span style=&quot;font-size: 24px;&quot;&gt;船舶测&lt;/span&gt;&lt;/font&gt;&lt;/p&gt;&lt;p style=&quot;margin-top: 0pt; margin-bottom: 0pt; margin-left: 0in; direction: ltr; unicode-bidi: embed; word-break: normal;&quot;&gt;&lt;font face=&quot;宋体&quot;&gt;&lt;span style=&quot;font-size: 24px;&quot;&gt;数据模块&lt;/span&gt;&lt;/font&gt;&lt;/p&gt;" style="rounded=0;whiteSpace=wrap;html=1;" vertex="1" parent="1">
          <mxGeometry x="895" y="104.38" width="160" height="60" as="geometry" />
        </mxCell>
        <mxCell id="3i6LpW2TI8DiR0ECyHMc-6" value="&lt;p style=&quot;margin-top: 0pt; margin-bottom: 0pt; margin-left: 0in; direction: ltr; unicode-bidi: embed; word-break: normal;&quot;&gt;&lt;font face=&quot;宋体&quot;&gt;&lt;span style=&quot;font-size: 24px;&quot;&gt;海底观测网&lt;/span&gt;&lt;/font&gt;&lt;/p&gt;&lt;p style=&quot;margin-top: 0pt; margin-bottom: 0pt; margin-left: 0in; direction: ltr; unicode-bidi: embed; word-break: normal;&quot;&gt;&lt;font face=&quot;宋体&quot;&gt;&lt;span style=&quot;font-size: 24px;&quot;&gt;数据模块&lt;/span&gt;&lt;/font&gt;&lt;/p&gt;" style="rounded=0;whiteSpace=wrap;html=1;" vertex="1" parent="1">
          <mxGeometry x="535" y="174.38" width="160" height="60" as="geometry" />
        </mxCell>
        <mxCell id="3i6LpW2TI8DiR0ECyHMc-7" value="&lt;p style=&quot;margin-top: 0pt; margin-bottom: 0pt; margin-left: 0in; direction: ltr; unicode-bidi: embed; word-break: normal;&quot;&gt;&lt;font face=&quot;宋体&quot;&gt;&lt;span style=&quot;font-size: 24px;&quot;&gt;地波雷达&lt;/span&gt;&lt;/font&gt;&lt;/p&gt;&lt;p style=&quot;margin-top: 0pt; margin-bottom: 0pt; margin-left: 0in; direction: ltr; unicode-bidi: embed; word-break: normal;&quot;&gt;&lt;font face=&quot;宋体&quot;&gt;&lt;span style=&quot;font-size: 24px;&quot;&gt;数据模块&lt;/span&gt;&lt;/font&gt;&lt;/p&gt;" style="rounded=0;whiteSpace=wrap;html=1;" vertex="1" parent="1">
          <mxGeometry x="715" y="174.38" width="160" height="60" as="geometry" />
        </mxCell>
        <mxCell id="3i6LpW2TI8DiR0ECyHMc-8" value="&lt;p style=&quot;margin-top: 0pt; margin-bottom: 0pt; margin-left: 0in; direction: ltr; unicode-bidi: embed; word-break: normal;&quot;&gt;&lt;font face=&quot;宋体&quot;&gt;&lt;span style=&quot;font-size: 24px;&quot;&gt;再分析与数值模拟数据模块&lt;/span&gt;&lt;/font&gt;&lt;/p&gt;" style="rounded=0;whiteSpace=wrap;html=1;" vertex="1" parent="1">
          <mxGeometry x="895" y="174.38" width="160" height="60" as="geometry" />
        </mxCell>
        <mxCell id="3i6LpW2TI8DiR0ECyHMc-9" value="" style="endArrow=classic;html=1;rounded=0;exitX=0;exitY=0.5;exitDx=0;exitDy=0;edgeStyle=orthogonalEdgeStyle;entryX=0.5;entryY=0;entryDx=0;entryDy=0;" edge="1" parent="1" source="3i6LpW2TI8DiR0ECyHMc-2" target="3i6LpW2TI8DiR0ECyHMc-51">
          <mxGeometry relative="1" as="geometry">
            <mxPoint x="280" y="380" as="sourcePoint" />
            <mxPoint x="420" y="280" as="targetPoint" />
          </mxGeometry>
        </mxCell>
        <mxCell id="3i6LpW2TI8DiR0ECyHMc-10" value="&lt;font style=&quot;font-size: 20px;&quot; face=&quot;宋体&quot;&gt;提供原始数据&lt;/font&gt;" style="edgeLabel;html=1;align=center;verticalAlign=middle;resizable=0;points=[];" vertex="1" connectable="0" parent="3i6LpW2TI8DiR0ECyHMc-9">
          <mxGeometry x="0.004" y="-1" relative="1" as="geometry">
            <mxPoint x="-48" y="56" as="offset" />
          </mxGeometry>
        </mxCell>
        <mxCell id="3i6LpW2TI8DiR0ECyHMc-50" style="edgeStyle=orthogonalEdgeStyle;rounded=0;orthogonalLoop=1;jettySize=auto;html=1;exitX=0.5;exitY=1;exitDx=0;exitDy=0;entryX=0.5;entryY=0;entryDx=0;entryDy=0;" edge="1" parent="1" source="3i6LpW2TI8DiR0ECyHMc-14" target="3i6LpW2TI8DiR0ECyHMc-16">
          <mxGeometry relative="1" as="geometry" />
        </mxCell>
        <mxCell id="3i6LpW2TI8DiR0ECyHMc-14" value="&lt;span style=&quot;line-height: 18px; font-family: 宋体;&quot;&gt;&lt;font style=&quot;font-size: 24px;&quot;&gt;数据清洗模块&lt;/font&gt;&lt;/span&gt;" style="rounded=0;whiteSpace=wrap;html=1;align=center;" vertex="1" parent="1">
          <mxGeometry x="216" y="386" width="202" height="56" as="geometry" />
        </mxCell>
        <mxCell id="3i6LpW2TI8DiR0ECyHMc-15" value="&lt;span style=&quot;line-height: 18px; font-family: 宋体;&quot;&gt;&lt;font style=&quot;font-size: 24px;&quot;&gt;数据标准化模块&lt;/font&gt;&lt;/span&gt;" style="rounded=0;whiteSpace=wrap;html=1;align=center;textDirection=vertical-lr;" vertex="1" parent="1">
          <mxGeometry x="559" y="292.5" width="63" height="234.5" as="geometry" />
        </mxCell>
        <mxCell id="3i6LpW2TI8DiR0ECyHMc-53" style="edgeStyle=orthogonalEdgeStyle;rounded=0;orthogonalLoop=1;jettySize=auto;html=1;entryX=0;entryY=0.5;entryDx=0;entryDy=0;" edge="1" parent="1" source="3i6LpW2TI8DiR0ECyHMc-16" target="3i6LpW2TI8DiR0ECyHMc-17">
          <mxGeometry relative="1" as="geometry">
            <Array as="points">
              <mxPoint x="454" y="497" />
              <mxPoint x="454" y="409" />
            </Array>
          </mxGeometry>
        </mxCell>
        <mxCell id="3i6LpW2TI8DiR0ECyHMc-16" value="&lt;span style=&quot;line-height: 18px; font-family: 宋体;&quot;&gt;&lt;font style=&quot;font-size: 24px;&quot;&gt;数据融合模块&lt;/font&gt;&lt;/span&gt;" style="rounded=0;whiteSpace=wrap;html=1;align=center;" vertex="1" parent="1">
          <mxGeometry x="216" y="472" width="198" height="51" as="geometry" />
        </mxCell>
        <mxCell id="3i6LpW2TI8DiR0ECyHMc-54" style="edgeStyle=orthogonalEdgeStyle;rounded=0;orthogonalLoop=1;jettySize=auto;html=1;exitX=1;exitY=0.5;exitDx=0;exitDy=0;entryX=0;entryY=0.5;entryDx=0;entryDy=0;" edge="1" parent="1" source="3i6LpW2TI8DiR0ECyHMc-17" target="3i6LpW2TI8DiR0ECyHMc-15">
          <mxGeometry relative="1" as="geometry" />
        </mxCell>
        <mxCell id="3i6LpW2TI8DiR0ECyHMc-17" value="&lt;span style=&quot;line-height: 18px; font-family: 宋体;&quot;&gt;&lt;font style=&quot;font-size: 24px;&quot;&gt;数据特征提取模块&lt;/font&gt;&lt;/span&gt;" style="rounded=0;whiteSpace=wrap;html=1;align=center;textDirection=vertical-lr;" vertex="1" parent="1">
          <mxGeometry x="472" y="292.5" width="60" height="234" as="geometry" />
        </mxCell>
        <mxCell id="3i6LpW2TI8DiR0ECyHMc-49" style="edgeStyle=orthogonalEdgeStyle;rounded=0;orthogonalLoop=1;jettySize=auto;html=1;exitX=0.5;exitY=1;exitDx=0;exitDy=0;entryX=0.5;entryY=0;entryDx=0;entryDy=0;" edge="1" parent="1" source="3i6LpW2TI8DiR0ECyHMc-18" target="3i6LpW2TI8DiR0ECyHMc-14">
          <mxGeometry relative="1" as="geometry" />
        </mxCell>
        <mxCell id="3i6LpW2TI8DiR0ECyHMc-18" value="&lt;span style=&quot;line-height: 18px; font-family: 宋体;&quot;&gt;&lt;font style=&quot;font-size: 24px;&quot;&gt;数据质控模块&lt;/font&gt;&lt;/span&gt;" style="rounded=0;whiteSpace=wrap;html=1;align=center;" vertex="1" parent="1">
          <mxGeometry x="220" y="290.95" width="194" height="67.05" as="geometry" />
        </mxCell>
        <mxCell id="3i6LpW2TI8DiR0ECyHMc-19" value="" style="endArrow=classic;html=1;rounded=0;entryX=0;entryY=0.5;entryDx=0;entryDy=0;exitX=1;exitY=0.5;exitDx=0;exitDy=0;" edge="1" parent="1" source="3i6LpW2TI8DiR0ECyHMc-52" target="3i6LpW2TI8DiR0ECyHMc-22">
          <mxGeometry relative="1" as="geometry">
            <mxPoint x="679.1600000000003" y="306.4124999999999" as="sourcePoint" />
            <mxPoint x="900.0000000000001" y="353.3222" as="targetPoint" />
          </mxGeometry>
        </mxCell>
        <mxCell id="3i6LpW2TI8DiR0ECyHMc-20" value="&lt;font style=&quot;font-size: 20px;&quot;&gt;&lt;font face=&quot;宋体&quot; style=&quot;font-size: 20px;&quot;&gt;提供&lt;/font&gt;&lt;/font&gt;&lt;div&gt;&lt;font style=&quot;font-size: 20px;&quot;&gt;&lt;span style=&quot;font-family: 宋体;&quot;&gt;训练数据&lt;/span&gt;&lt;/font&gt;&lt;/div&gt;" style="edgeLabel;resizable=0;html=1;;align=center;verticalAlign=middle;" connectable="0" vertex="1" parent="3i6LpW2TI8DiR0ECyHMc-19">
          <mxGeometry relative="1" as="geometry">
            <mxPoint x="2" y="1" as="offset" />
          </mxGeometry>
        </mxCell>
        <mxCell id="3i6LpW2TI8DiR0ECyHMc-23" value="&lt;p style=&quot;margin-top: 0pt; margin-bottom: 0pt; margin-left: 0in; direction: ltr; unicode-bidi: embed; word-break: normal;&quot;&gt;&lt;font face=&quot;宋体&quot;&gt;&lt;span style=&quot;font-size: 24px;&quot;&gt;参数优化模块&lt;/span&gt;&lt;/font&gt;&lt;/p&gt;" style="rounded=0;whiteSpace=wrap;html=1;" vertex="1" parent="1">
          <mxGeometry x="793" y="321" width="160" height="60" as="geometry" />
        </mxCell>
        <mxCell id="3i6LpW2TI8DiR0ECyHMc-61" style="edgeStyle=orthogonalEdgeStyle;rounded=0;orthogonalLoop=1;jettySize=auto;html=1;exitX=1;exitY=0.5;exitDx=0;exitDy=0;entryX=0;entryY=0.5;entryDx=0;entryDy=0;" edge="1" parent="1" source="3i6LpW2TI8DiR0ECyHMc-24" target="3i6LpW2TI8DiR0ECyHMc-26">
          <mxGeometry relative="1" as="geometry">
            <Array as="points">
              <mxPoint x="992" y="472" />
              <mxPoint x="992" y="351" />
            </Array>
          </mxGeometry>
        </mxCell>
        <mxCell id="3i6LpW2TI8DiR0ECyHMc-24" value="&lt;p style=&quot;margin-top: 0pt; margin-bottom: 0pt; margin-left: 0in; direction: ltr; unicode-bidi: embed; word-break: normal;&quot;&gt;&lt;font face=&quot;宋体&quot;&gt;&lt;span style=&quot;font-size: 24px;&quot;&gt;模型优选模块&lt;/span&gt;&lt;/font&gt;&lt;/p&gt;" style="rounded=0;whiteSpace=wrap;html=1;" vertex="1" parent="1">
          <mxGeometry x="793" y="442" width="160" height="60" as="geometry" />
        </mxCell>
        <mxCell id="3i6LpW2TI8DiR0ECyHMc-74" style="edgeStyle=orthogonalEdgeStyle;rounded=0;orthogonalLoop=1;jettySize=auto;html=1;exitX=0.25;exitY=0;exitDx=0;exitDy=0;entryX=0.25;entryY=1;entryDx=0;entryDy=0;curved=1;dashed=1;" edge="1" parent="1" source="3i6LpW2TI8DiR0ECyHMc-25" target="3i6LpW2TI8DiR0ECyHMc-26">
          <mxGeometry relative="1" as="geometry">
            <Array as="points">
              <mxPoint x="1027" y="442" />
              <mxPoint x="1027" y="381" />
            </Array>
          </mxGeometry>
        </mxCell>
        <mxCell id="3i6LpW2TI8DiR0ECyHMc-25" value="&lt;p style=&quot;margin-top: 0pt; margin-bottom: 0pt; margin-left: 0in; direction: ltr; unicode-bidi: embed; word-break: normal;&quot;&gt;&lt;font face=&quot;宋体&quot;&gt;&lt;span style=&quot;font-size: 24px;&quot;&gt;交叉验证与评估模块&lt;/span&gt;&lt;/font&gt;&lt;/p&gt;" style="rounded=0;whiteSpace=wrap;html=1;" vertex="1" parent="1">
          <mxGeometry x="1006" y="442" width="160" height="60" as="geometry" />
        </mxCell>
        <mxCell id="3i6LpW2TI8DiR0ECyHMc-27" value="" style="endArrow=classic;html=1;rounded=0;exitX=1;exitY=0.5;exitDx=0;exitDy=0;entryX=1;entryY=0.5;entryDx=0;entryDy=0;edgeStyle=orthogonalEdgeStyle;" edge="1" parent="1" source="3i6LpW2TI8DiR0ECyHMc-58" target="3i6LpW2TI8DiR0ECyHMc-30">
          <mxGeometry relative="1" as="geometry">
            <mxPoint x="900" y="584" as="sourcePoint" />
            <mxPoint x="983" y="612" as="targetPoint" />
            <Array as="points">
              <mxPoint x="1290" y="405" />
              <mxPoint x="1290" y="789" />
            </Array>
          </mxGeometry>
        </mxCell>
        <mxCell id="3i6LpW2TI8DiR0ECyHMc-28" value="&lt;font style=&quot;font-size: 20px;&quot; face=&quot;宋体&quot;&gt;提供训练好的模型&lt;/font&gt;" style="edgeLabel;resizable=0;html=1;;align=center;verticalAlign=middle;" connectable="0" vertex="1" parent="3i6LpW2TI8DiR0ECyHMc-27">
          <mxGeometry relative="1" as="geometry">
            <mxPoint x="-2" y="7" as="offset" />
          </mxGeometry>
        </mxCell>
        <mxCell id="3i6LpW2TI8DiR0ECyHMc-30" value="" style="rounded=0;whiteSpace=wrap;html=1;fillColor=none;dashed=1;dashPattern=12 12;strokeColor=#000000;" vertex="1" parent="1">
          <mxGeometry x="652" y="610" width="588" height="357" as="geometry" />
        </mxCell>
        <mxCell id="3i6LpW2TI8DiR0ECyHMc-31" value="&lt;span style=&quot;line-height: 18px; font-family: 宋体;&quot;&gt;&lt;font style=&quot;font-size: 24px;&quot;&gt;温盐预报模块&lt;/font&gt;&lt;/span&gt;" style="rounded=0;whiteSpace=wrap;html=1;textDirection=vertical-lr;align=center;" vertex="1" parent="1">
          <mxGeometry x="883.5" y="698.25" width="60" height="258.12" as="geometry" />
        </mxCell>
        <mxCell id="3i6LpW2TI8DiR0ECyHMc-32" value="&lt;span style=&quot;line-height: 18px; font-family: 宋体;&quot;&gt;&lt;font style=&quot;font-size: 24px;&quot;&gt;海流预报模块&lt;/font&gt;&lt;/span&gt;" style="rounded=0;whiteSpace=wrap;html=1;textDirection=vertical-lr;align=center;" vertex="1" parent="1">
          <mxGeometry x="953.5" y="698.25" width="60" height="258.12" as="geometry" />
        </mxCell>
        <mxCell id="3i6LpW2TI8DiR0ECyHMc-33" value="&lt;span style=&quot;line-height: 18px; font-family: 宋体;&quot;&gt;&lt;font style=&quot;font-size: 24px;&quot;&gt;泥沙浓度预报模块&lt;/font&gt;&lt;/span&gt;" style="rounded=0;whiteSpace=wrap;html=1;textDirection=vertical-lr;align=center;" vertex="1" parent="1">
          <mxGeometry x="1023.5" y="698.25" width="60" height="258.12" as="geometry" />
        </mxCell>
        <mxCell id="3i6LpW2TI8DiR0ECyHMc-34" value="&lt;span style=&quot;line-height: 18px; font-family: 宋体;&quot;&gt;&lt;font style=&quot;font-size: 24px;&quot;&gt;生态系统动力预报模块&lt;/font&gt;&lt;/span&gt;" style="rounded=0;whiteSpace=wrap;html=1;textDirection=vertical-lr;align=center;" vertex="1" parent="1">
          <mxGeometry x="1093.5" y="697" width="60" height="258.75" as="geometry" />
        </mxCell>
        <mxCell id="3i6LpW2TI8DiR0ECyHMc-35" value="&lt;span style=&quot;line-height: 18px; font-family: 宋体;&quot;&gt;&lt;font style=&quot;font-size: 24px;&quot;&gt;风暴潮预报模块&lt;/font&gt;&lt;/span&gt;" style="rounded=0;whiteSpace=wrap;html=1;textDirection=vertical-lr;align=center;" vertex="1" parent="1">
          <mxGeometry x="813.5" y="698.25" width="60" height="258.12" as="geometry" />
        </mxCell>
        <mxCell id="3i6LpW2TI8DiR0ECyHMc-36" value="&lt;span style=&quot;line-height: 18px; font-family: 宋体;&quot;&gt;&lt;font style=&quot;font-size: 24px;&quot;&gt;潮汐潮流预报模块&lt;/font&gt;&lt;/span&gt;" style="rounded=0;whiteSpace=wrap;html=1;textDirection=vertical-lr;align=center;" vertex="1" parent="1">
          <mxGeometry x="743.5" y="698.25" width="60" height="258.12" as="geometry" />
        </mxCell>
        <mxCell id="3i6LpW2TI8DiR0ECyHMc-37" value="&lt;span style=&quot;line-height: 18px; font-family: 宋体;&quot;&gt;&lt;font style=&quot;font-size: 24px;&quot;&gt;海浪预报模块&lt;/font&gt;&lt;/span&gt;" style="rounded=0;whiteSpace=wrap;html=1;textDirection=vertical-lr;align=center;" vertex="1" parent="1">
          <mxGeometry x="668.5" y="697" width="60" height="258.12" as="geometry" />
        </mxCell>
        <mxCell id="3i6LpW2TI8DiR0ECyHMc-38" value="&lt;span style=&quot;line-height: 18px; font-family: 宋体;&quot;&gt;&lt;font style=&quot;font-size: 24px;&quot;&gt;海洋锋面预报模块&lt;/font&gt;&lt;/span&gt;" style="rounded=0;whiteSpace=wrap;html=1;textDirection=vertical-lr;align=center;" vertex="1" parent="1">
          <mxGeometry x="1163.5" y="697" width="60" height="258.75" as="geometry" />
        </mxCell>
        <mxCell id="3i6LpW2TI8DiR0ECyHMc-39" value="&lt;span style=&quot;line-height: 18px; font-family: 宋体;&quot;&gt;&lt;font style=&quot;font-size: 24px;&quot;&gt;误差分析与反馈模块&lt;/font&gt;&lt;/span&gt;" style="rounded=0;whiteSpace=wrap;html=1;align=center;" vertex="1" parent="1">
          <mxGeometry x="671.5" y="629" width="552" height="55" as="geometry" />
        </mxCell>
        <mxCell id="3i6LpW2TI8DiR0ECyHMc-40" value="" style="endArrow=classic;html=1;rounded=0;entryX=0.471;entryY=0.99;entryDx=0;entryDy=0;dashed=1;entryPerimeter=0;" edge="1" parent="1" target="3i6LpW2TI8DiR0ECyHMc-25">
          <mxGeometry relative="1" as="geometry">
            <mxPoint x="1084" y="629" as="sourcePoint" />
            <mxPoint x="910" y="660" as="targetPoint" />
          </mxGeometry>
        </mxCell>
        <mxCell id="3i6LpW2TI8DiR0ECyHMc-41" value="&lt;font face=&quot;宋体&quot; style=&quot;font-size: 20px;&quot;&gt;误差反馈&lt;/font&gt;" style="edgeLabel;resizable=0;html=1;;align=center;verticalAlign=middle;" connectable="0" vertex="1" parent="3i6LpW2TI8DiR0ECyHMc-40">
          <mxGeometry relative="1" as="geometry" />
        </mxCell>
        <mxCell id="3i6LpW2TI8DiR0ECyHMc-42" value="" style="rounded=0;whiteSpace=wrap;html=1;fillColor=none;dashed=1;dashPattern=12 12;strokeColor=#000000;" vertex="1" parent="1">
          <mxGeometry x="305" y="645" width="181" height="210" as="geometry" />
        </mxCell>
        <mxCell id="3i6LpW2TI8DiR0ECyHMc-43" value="" style="endArrow=classic;html=1;rounded=0;exitX=0.002;exitY=0.396;exitDx=0;exitDy=0;entryX=1;entryY=0.5;entryDx=0;entryDy=0;exitPerimeter=0;" edge="1" parent="1" source="3i6LpW2TI8DiR0ECyHMc-30" target="3i6LpW2TI8DiR0ECyHMc-42">
          <mxGeometry relative="1" as="geometry">
            <mxPoint x="570" y="490" as="sourcePoint" />
            <mxPoint x="670" y="490" as="targetPoint" />
          </mxGeometry>
        </mxCell>
        <mxCell id="3i6LpW2TI8DiR0ECyHMc-44" value="&lt;font face=&quot;宋体&quot; style=&quot;font-size: 20px;&quot;&gt;提供预报结果&lt;/font&gt;" style="edgeLabel;resizable=0;html=1;;align=center;verticalAlign=middle;" connectable="0" vertex="1" parent="3i6LpW2TI8DiR0ECyHMc-43">
          <mxGeometry relative="1" as="geometry">
            <mxPoint x="5" as="offset" />
          </mxGeometry>
        </mxCell>
        <mxCell id="3i6LpW2TI8DiR0ECyHMc-45" value="&lt;span style=&quot;line-height: 18px; font-family: 宋体;&quot;&gt;&lt;font style=&quot;font-size: 24px;&quot;&gt;日志管理模块&lt;/font&gt;&lt;/span&gt;" style="rounded=0;whiteSpace=wrap;html=1;align=center;" vertex="1" parent="1">
          <mxGeometry x="316.5" y="879" width="158" height="88" as="geometry" />
        </mxCell>
        <mxCell id="3i6LpW2TI8DiR0ECyHMc-46" value="&lt;span style=&quot;line-height: 18px; font-family: 宋体;&quot;&gt;&lt;font style=&quot;font-size: 24px;&quot;&gt;时空可视化模块&lt;/font&gt;&lt;/span&gt;" style="rounded=0;whiteSpace=wrap;html=1;textDirection=vertical-lr;align=center;" vertex="1" parent="1">
          <mxGeometry x="412" y="656.4099999999999" width="60" height="187.19" as="geometry" />
        </mxCell>
        <mxCell id="3i6LpW2TI8DiR0ECyHMc-47" value="&lt;span style=&quot;line-height: 18px; font-family: 宋体;&quot;&gt;&lt;font style=&quot;font-size: 24px;&quot;&gt;预警决策模块&lt;/font&gt;&lt;/span&gt;" style="rounded=0;whiteSpace=wrap;html=1;textDirection=vertical-lr;align=center;" vertex="1" parent="1">
          <mxGeometry x="322" y="656.4099999999999" width="60" height="187.19" as="geometry" />
        </mxCell>
        <mxCell id="3i6LpW2TI8DiR0ECyHMc-56" value="" style="endArrow=classic;html=1;rounded=0;exitX=0.25;exitY=0;exitDx=0;exitDy=0;entryX=0.25;entryY=1;entryDx=0;entryDy=0;edgeStyle=orthogonalEdgeStyle;curved=1;dashed=1;" edge="1" parent="1" source="3i6LpW2TI8DiR0ECyHMc-24" target="3i6LpW2TI8DiR0ECyHMc-23">
          <mxGeometry width="50" height="50" relative="1" as="geometry">
            <mxPoint x="960" y="423" as="sourcePoint" />
            <mxPoint x="1010" y="373" as="targetPoint" />
            <Array as="points">
              <mxPoint x="811" y="442" />
              <mxPoint x="811" y="381" />
            </Array>
          </mxGeometry>
        </mxCell>
        <mxCell id="3i6LpW2TI8DiR0ECyHMc-57" value="" style="endArrow=classic;html=1;rounded=0;exitX=0.75;exitY=1;exitDx=0;exitDy=0;entryX=0.75;entryY=0;entryDx=0;entryDy=0;edgeStyle=orthogonalEdgeStyle;curved=1;" edge="1" parent="1" source="3i6LpW2TI8DiR0ECyHMc-23" target="3i6LpW2TI8DiR0ECyHMc-24">
          <mxGeometry width="50" height="50" relative="1" as="geometry">
            <mxPoint x="960" y="423" as="sourcePoint" />
            <mxPoint x="1010" y="373" as="targetPoint" />
            <Array as="points">
              <mxPoint x="934" y="381" />
              <mxPoint x="934" y="442" />
            </Array>
          </mxGeometry>
        </mxCell>
        <mxCell id="3i6LpW2TI8DiR0ECyHMc-64" style="edgeStyle=orthogonalEdgeStyle;rounded=0;orthogonalLoop=1;jettySize=auto;html=1;exitX=0.5;exitY=0;exitDx=0;exitDy=0;entryX=0.045;entryY=0.98;entryDx=0;entryDy=0;entryPerimeter=0;" edge="1" parent="1" source="3i6LpW2TI8DiR0ECyHMc-37" target="3i6LpW2TI8DiR0ECyHMc-39">
          <mxGeometry relative="1" as="geometry" />
        </mxCell>
        <mxCell id="3i6LpW2TI8DiR0ECyHMc-65" style="edgeStyle=orthogonalEdgeStyle;rounded=0;orthogonalLoop=1;jettySize=auto;html=1;exitX=0.5;exitY=0;exitDx=0;exitDy=0;entryX=0.184;entryY=1.014;entryDx=0;entryDy=0;entryPerimeter=0;" edge="1" parent="1" source="3i6LpW2TI8DiR0ECyHMc-36" target="3i6LpW2TI8DiR0ECyHMc-39">
          <mxGeometry relative="1" as="geometry" />
        </mxCell>
        <mxCell id="3i6LpW2TI8DiR0ECyHMc-66" style="edgeStyle=orthogonalEdgeStyle;rounded=0;orthogonalLoop=1;jettySize=auto;html=1;exitX=0.5;exitY=0;exitDx=0;exitDy=0;entryX=0.312;entryY=0.98;entryDx=0;entryDy=0;entryPerimeter=0;" edge="1" parent="1" source="3i6LpW2TI8DiR0ECyHMc-35" target="3i6LpW2TI8DiR0ECyHMc-39">
          <mxGeometry relative="1" as="geometry" />
        </mxCell>
        <mxCell id="3i6LpW2TI8DiR0ECyHMc-67" style="edgeStyle=orthogonalEdgeStyle;rounded=0;orthogonalLoop=1;jettySize=auto;html=1;exitX=0.5;exitY=0;exitDx=0;exitDy=0;entryX=0.435;entryY=0.98;entryDx=0;entryDy=0;entryPerimeter=0;" edge="1" parent="1" source="3i6LpW2TI8DiR0ECyHMc-31" target="3i6LpW2TI8DiR0ECyHMc-39">
          <mxGeometry relative="1" as="geometry" />
        </mxCell>
        <mxCell id="3i6LpW2TI8DiR0ECyHMc-68" style="edgeStyle=orthogonalEdgeStyle;rounded=0;orthogonalLoop=1;jettySize=auto;html=1;exitX=0.5;exitY=0;exitDx=0;exitDy=0;" edge="1" parent="1" source="3i6LpW2TI8DiR0ECyHMc-32">
          <mxGeometry relative="1" as="geometry">
            <mxPoint x="983" y="684" as="targetPoint" />
          </mxGeometry>
        </mxCell>
        <mxCell id="3i6LpW2TI8DiR0ECyHMc-69" style="edgeStyle=orthogonalEdgeStyle;rounded=0;orthogonalLoop=1;jettySize=auto;html=1;exitX=0.5;exitY=0;exitDx=0;exitDy=0;entryX=0.691;entryY=0.989;entryDx=0;entryDy=0;entryPerimeter=0;" edge="1" parent="1" source="3i6LpW2TI8DiR0ECyHMc-33" target="3i6LpW2TI8DiR0ECyHMc-39">
          <mxGeometry relative="1" as="geometry" />
        </mxCell>
        <mxCell id="3i6LpW2TI8DiR0ECyHMc-70" style="edgeStyle=orthogonalEdgeStyle;rounded=0;orthogonalLoop=1;jettySize=auto;html=1;exitX=0.5;exitY=0;exitDx=0;exitDy=0;entryX=0.818;entryY=0.989;entryDx=0;entryDy=0;entryPerimeter=0;" edge="1" parent="1" source="3i6LpW2TI8DiR0ECyHMc-34" target="3i6LpW2TI8DiR0ECyHMc-39">
          <mxGeometry relative="1" as="geometry" />
        </mxCell>
        <mxCell id="3i6LpW2TI8DiR0ECyHMc-71" style="edgeStyle=orthogonalEdgeStyle;rounded=0;orthogonalLoop=1;jettySize=auto;html=1;exitX=0.5;exitY=0;exitDx=0;exitDy=0;entryX=0.945;entryY=0.999;entryDx=0;entryDy=0;entryPerimeter=0;" edge="1" parent="1" source="3i6LpW2TI8DiR0ECyHMc-38" target="3i6LpW2TI8DiR0ECyHMc-39">
          <mxGeometry relative="1" as="geometry" />
        </mxCell>
        <mxCell id="3i6LpW2TI8DiR0ECyHMc-76" value="" style="endArrow=classic;html=1;rounded=0;exitX=0.75;exitY=1;exitDx=0;exitDy=0;entryX=0.75;entryY=0;entryDx=0;entryDy=0;edgeStyle=orthogonalEdgeStyle;curved=1;" edge="1" parent="1" source="3i6LpW2TI8DiR0ECyHMc-26" target="3i6LpW2TI8DiR0ECyHMc-25">
          <mxGeometry width="50" height="50" relative="1" as="geometry">
            <mxPoint x="1012" y="416" as="sourcePoint" />
            <mxPoint x="1062" y="366" as="targetPoint" />
            <Array as="points">
              <mxPoint x="1141" y="381" />
              <mxPoint x="1141" y="442" />
            </Array>
          </mxGeometry>
        </mxCell>
        <mxCell id="3i6LpW2TI8DiR0ECyHMc-77" value="" style="endArrow=classic;html=1;rounded=0;exitX=0;exitY=0.5;exitDx=0;exitDy=0;entryX=1;entryY=0.5;entryDx=0;entryDy=0;" edge="1" parent="1" source="3i6LpW2TI8DiR0ECyHMc-46" target="3i6LpW2TI8DiR0ECyHMc-47">
          <mxGeometry width="50" height="50" relative="1" as="geometry">
            <mxPoint x="587" y="752" as="sourcePoint" />
            <mxPoint x="637" y="702" as="targetPoint" />
          </mxGeometry>
        </mxCell>
      </root>
    </mxGraphModel>
  </diagram>
</mxfile>
